<?xml version="1.0" encoding="UTF-8"?>
<svg xmlns="http://www.w3.org/2000/svg" width="1600" height="940" viewBox="0 0 1600 940" role="img" aria-label="WebRTC overview">
  <defs>
    <linearGradient id="bg" x1="0" y1="0" x2="1" y2="1">
      <stop offset="0%" stop-color="#E8EEF5"/>
      <stop offset="100%" stop-color="#F7FAFC"/>
    </linearGradient>
    <marker id="arrowTeal" viewBox="0 0 10 10" refX="9" refY="5" markerWidth="8" markerHeight="8" orient="auto-start-reverse">
      <path d="M0,0 L10,5 L0,10 z" fill="#0F766E"/>
    </marker>
    <marker id="arrowCoral" viewBox="0 0 10 10" refX="9" refY="5" markerWidth="8" markerHeight="8" orient="auto-start-reverse">
      <path d="M0,0 L10,5 L0,10 z" fill="#C2410C"/>
    </marker>
    <marker id="arrowSlate" viewBox="0 0 10 10" refX="9" refY="5" markerWidth="8" markerHeight="8" orient="auto-start-reverse">
      <path d="M0,0 L10,5 L0,10 z" fill="#334155"/>
    </marker>
    <style>
      .title { font: 700 40px "Segoe UI", "Helvetica Neue", Arial, sans-serif; fill: #0F172A; }
      .subtitle { font: 500 18px "Segoe UI", "Helvetica Neue", Arial, sans-serif; fill: #64748B; }
      .h { font: 700 20px "Segoe UI", "Helvetica Neue", Arial, sans-serif; fill: #0F172A; }
      .t { font: 500 15px "Segoe UI", "Helvetica Neue", Arial, sans-serif; fill: #475569; }
      .num { font: 700 16px "Segoe UI", "Helvetica Neue", Arial, sans-serif; fill: #FFFFFF; }
      .peer { font: 700 22px "Segoe UI", "Helvetica Neue", Arial, sans-serif; fill: #0F172A; }
      .code { font: 600 14px Menlo, Consolas, monospace; fill: #0F172A; }
      .lane { font: 700 13px "Segoe UI", "Helvetica Neue", Arial, sans-serif; fill: #64748B; letter-spacing: 0.06em; }
    </style>
  </defs>

  <rect width="1600" height="940" fill="url(#bg)"/>

  <text x="800" y="58" text-anchor="middle" class="title">WebRTC - как работает соединение</text>
  <text x="800" y="90" text-anchor="middle" class="subtitle">signaling - SDP (offer/answer) - ICE - медиа (P2P)</text>

  <rect x="40" y="120" width="490" height="170" rx="16" fill="#FFFFFF" stroke="#0F766E" stroke-width="2.5"/>
  <circle cx="80" cy="160" r="18" fill="#0F766E"/>
  <text x="80" y="166" text-anchor="middle" class="num">1</text>
  <text x="112" y="168" class="h">Signaling</text>
  <text x="64" y="208" class="t">Передать offer / answer между peers.</text>
  <text x="64" y="232" class="t">WebRTC сам это не делает.</text>
  <text x="64" y="256" class="t">Demo: copy-paste · Prod: WebSocket</text>

  <rect x="555" y="120" width="490" height="170" rx="16" fill="#FFFFFF" stroke="#0369A1" stroke-width="2.5"/>
  <circle cx="595" cy="160" r="18" fill="#0369A1"/>
  <text x="595" y="166" text-anchor="middle" class="num">2</text>
  <text x="627" y="168" class="h">Peer Connection</text>
  <text x="579" y="208" class="t">Объект RTCPeerConnection в браузере.</text>
  <text x="579" y="232" class="t">Держит треки, SDP, ICE, медиа.</text>
  <text x="579" y="256" class="code">new RTCPeerConnection({ iceServers })</text>

  <rect x="1070" y="120" width="490" height="170" rx="16" fill="#FFFFFF" stroke="#C2410C" stroke-width="2.5"/>
  <circle cx="1110" cy="160" r="18" fill="#C2410C"/>
  <text x="1110" y="166" text-anchor="middle" class="num">3</text>
  <text x="1142" y="168" class="h">Обмен SDP</text>
  <text x="1094" y="208" class="t">Offer = «давай так соединимся».</text>
  <text x="1094" y="232" class="t">Answer = «ок, принимаю».</text>
  <text x="1094" y="256" class="t">Внутри: кодеки, треки, ICE-адреса</text>

  <rect x="40" y="320" width="280" height="420" rx="16" fill="#FFFFFF" stroke="#0F766E" stroke-width="3"/>
  <rect x="40" y="320" width="280" height="60" rx="16" fill="#CCFBF1"/>
  <rect x="40" y="356" width="280" height="24" fill="#CCFBF1"/>
  <text x="180" y="358" text-anchor="middle" class="peer">Sender</text>
  <text x="180" y="386" text-anchor="middle" class="t">камера · addTrack</text>

  <rect x="60" y="420" width="240" height="70" rx="12" fill="#F0FDFA" stroke="#99F6E4"/>
  <text x="180" y="450" text-anchor="middle" class="code">RTCPeerConnection</text>
  <text x="180" y="474" text-anchor="middle" class="t">createOffer()</text>

  <rect x="60" y="510" width="240" height="70" rx="12" fill="#F8FAFC" stroke="#CBD5E1"/>
  <text x="180" y="540" text-anchor="middle" class="code">setLocalDescription</text>
  <text x="180" y="564" text-anchor="middle" class="t">+ ICE gathering</text>

  <rect x="60" y="600" width="240" height="70" rx="12" fill="#F8FAFC" stroke="#CBD5E1"/>
  <text x="180" y="630" text-anchor="middle" class="code">setRemoteDescription</text>
  <text x="180" y="654" text-anchor="middle" class="t">принимает answer</text>

  <rect x="60" y="690" width="240" height="30" rx="8" fill="#FEF3C7" stroke="#F59E0B"/>
  <text x="180" y="710" text-anchor="middle" class="t">MediaStream (камера)</text>

  <rect x="350" y="320" width="900" height="420" rx="16" fill="#FFFFFF" stroke="#CBD5E1" stroke-width="2"/>
  <text x="800" y="360" text-anchor="middle" class="lane">HANDSHAKE (SIGNALING)</text>

  <line x1="390" y1="410" x2="1210" y2="410" stroke="#0F766E" stroke-width="3" marker-end="url(#arrowTeal)"/>
  <rect x="620" y="382" width="360" height="36" rx="10" fill="#CCFBF1" stroke="#0F766E"/>
  <text x="800" y="406" text-anchor="middle" class="code">offer  { type, sdp + ICE }</text>

  <line x1="1210" y1="490" x2="390" y2="490" stroke="#C2410C" stroke-width="3" marker-end="url(#arrowCoral)"/>
  <rect x="620" y="462" width="360" height="36" rx="10" fill="#FFEDD5" stroke="#C2410C"/>
  <text x="800" y="486" text-anchor="middle" class="code">answer  { type, sdp + ICE }</text>

  <rect x="400" y="550" width="800" height="160" rx="14" fill="#F8FAFC" stroke="#64748B" stroke-width="2"/>
  <text x="800" y="588" text-anchor="middle" class="h">ICE - найти путь сквозь NAT / файрвол</text>
  <text x="800" y="620" text-anchor="middle" class="t">NAT: роутер прячет 192.168... за публичным IP</text>
  <text x="800" y="646" text-anchor="middle" class="t">Файрвол: решает, какой трафик пускать</text>

  <rect x="450" y="662" width="200" height="34" rx="8" fill="#E0F2FE" stroke="#0284C7"/>
  <text x="550" y="684" text-anchor="middle" class="t">STUN - внешний IP</text>
  <rect x="700" y="662" width="200" height="34" rx="8" fill="#FEF3C7" stroke="#D97706"/>
  <text x="800" y="684" text-anchor="middle" class="t">TURN - relay</text>
  <rect x="950" y="662" width="200" height="34" rx="8" fill="#DCFCE7" stroke="#16A34A"/>
  <text x="1050" y="684" text-anchor="middle" class="t">LAN: host хватает</text>

  <rect x="1280" y="320" width="280" height="420" rx="16" fill="#FFFFFF" stroke="#C2410C" stroke-width="3"/>
  <rect x="1280" y="320" width="280" height="60" rx="16" fill="#FFEDD5"/>
  <rect x="1280" y="356" width="280" height="24" fill="#FFEDD5"/>
  <text x="1420" y="358" text-anchor="middle" class="peer">Viewer</text>
  <text x="1420" y="386" text-anchor="middle" class="t">смотрит · ontrack</text>

  <rect x="1300" y="420" width="240" height="70" rx="12" fill="#FFF7ED" stroke="#FDBA74"/>
  <text x="1420" y="450" text-anchor="middle" class="code">RTCPeerConnection</text>
  <text x="1420" y="474" text-anchor="middle" class="t">setRemote(offer)</text>

  <rect x="1300" y="510" width="240" height="70" rx="12" fill="#F8FAFC" stroke="#CBD5E1"/>
  <text x="1420" y="540" text-anchor="middle" class="code">createAnswer()</text>
  <text x="1420" y="564" text-anchor="middle" class="t">+ setLocal + ICE</text>

  <rect x="1300" y="600" width="240" height="70" rx="12" fill="#F8FAFC" stroke="#CBD5E1"/>
  <text x="1420" y="630" text-anchor="middle" class="code">ontrack</text>
  <text x="1420" y="654" text-anchor="middle" class="t">remote MediaStream</text>

  <rect x="1300" y="690" width="240" height="30" rx="8" fill="#DBEAFE" stroke="#3B82F6"/>
  <text x="1420" y="710" text-anchor="middle" class="t">Remote video</text>

  <rect x="40" y="770" width="1520" height="140" rx="16" fill="#FFFFFF" stroke="#16A34A" stroke-width="3"/>
  <text x="800" y="820" text-anchor="middle" class="lane">МЕДИА (ПОСЛЕ HANDSHAKE)</text>
  <line x1="180" y1="860" x2="1420" y2="860" stroke="#16A34A" stroke-width="4" marker-end="url(#arrowSlate)"/>
  <text x="800" y="852" text-anchor="middle" class="h">видео / аудио по ICE path (часто UDP, P2P)</text>
  <text x="800" y="886" text-anchor="middle" class="t">уже не через copy-paste - напрямую Sender - Viewer</text>
</svg>
